<svg width="18" height="21" viewBox="0 0 18 21" fill="none" xmlns="http://www.w3.org/2000/svg">
<path d="M16.3136 2.73258L16.3137 2.73262C16.8174 3.12759 17.1162 3.5985 17.2136 4.04289C17.3069 4.46868 17.229 4.92002 16.8852 5.35906C16.8852 5.35913 16.8851 5.35921 16.8851 5.35928L6.07416 19.1517L6.07377 19.1522C5.85295 19.4344 5.51556 19.6012 5.15619 19.6052L5.15491 19.6053L1.58867 19.651L0.781024 16.1761L0.780864 16.1754C0.699726 15.8278 0.780347 15.4601 1.00265 15.1748C1.00279 15.1747 1.00293 15.1745 1.00307 15.1743L11.8128 1.38336C11.8129 1.38328 11.813 1.3832 11.813 1.38312C11.8131 1.38307 11.8131 1.38302 11.8131 1.38298C12.1567 0.945488 12.5765 0.76173 13.0131 0.750545C13.4685 0.738877 13.9974 0.916331 14.5007 1.31093C14.5007 1.31094 14.5007 1.31095 14.5007 1.31096L16.3136 2.73258Z" stroke="#606C80" stroke-width="1.5" stroke-linecap="round" stroke-linejoin="round"/>
<path d="M10.4211 4.7373L14.2106 7.57941" stroke="#606C80" stroke-width="1.5" stroke-linecap="round" stroke-linejoin="round"/>
</svg>
