<svg width="18" height="20" viewBox="0 0 18 20" fill="none" xmlns="http://www.w3.org/2000/svg">
<g clip-path="url(#clip0_106_2277)">
<path d="M5.13404 19.959C4.37068 19.9667 3.63475 19.6747 3.0843 19.1457C2.53385 18.6168 2.21278 17.8931 2.19004 17.13L2.06204 15.871L1.84004 13.427L1.61204 10.746L1.35204 7.528C1.3345 7.33227 1.39512 7.13755 1.52064 6.98635C1.64617 6.83515 1.82642 6.73976 2.02204 6.721C2.20022 6.7082 2.37695 6.76072 2.51922 6.86876C2.66148 6.97679 2.75953 7.13293 2.79504 7.308L2.82504 7.602L3.07004 10.62L3.33604 13.747C3.45704 15.101 3.56004 16.197 3.64304 16.966C3.63717 17.1661 3.67271 17.3652 3.74742 17.551C3.82214 17.7367 3.93442 17.9049 4.07723 18.0452C4.22004 18.1855 4.39029 18.2947 4.57731 18.3661C4.76433 18.4375 4.96409 18.4695 5.16404 18.46C7.61604 18.513 10.141 18.514 12.77 18.465C12.9755 18.4803 13.1819 18.4524 13.376 18.3831C13.57 18.3138 13.7475 18.2047 13.8968 18.0628C14.0462 17.9208 14.1642 17.7492 14.2433 17.559C14.3224 17.3687 14.3608 17.164 14.356 16.958L14.483 15.705C14.52 15.319 14.559 14.892 14.602 14.43L14.869 11.354L15.19 7.408C15.2026 7.22958 15.2791 7.06166 15.4055 6.9351C15.5318 6.80853 15.6996 6.7318 15.878 6.719H15.978C16.1563 6.73575 16.3225 6.81648 16.4458 6.94627C16.5692 7.07605 16.6414 7.24611 16.649 7.425L16.639 7.631L16.325 11.482L16 15.241C15.931 15.992 15.868 16.624 15.815 17.122C15.7897 17.8979 15.4584 18.6322 14.8935 19.1647C14.3287 19.6971 13.5761 19.9845 12.8 19.964C11.5087 19.988 10.242 20 9.00004 20C7.68937 20 6.40071 19.9863 5.13404 19.959ZM14.082 4.99H0.732041C0.548316 4.98043 0.374474 4.90384 0.243415 4.77473C0.112356 4.64561 0.0331735 4.47294 0.0208539 4.28937C0.0085344 4.10581 0.0639322 3.9241 0.176563 3.77864C0.289194 3.63317 0.451243 3.53404 0.632041 3.5L0.732041 3.494H3.91804C4.10284 3.4925 4.28245 3.43274 4.4313 3.32321C4.58015 3.21368 4.69064 3.05998 4.74704 2.884L4.77604 2.773L5.02304 1.51C5.12306 1.10786 5.34593 0.746904 5.66066 0.477343C5.97539 0.207782 6.36631 0.0430263 6.77904 0.006L6.93604 0H11.063C11.4825 0.00427819 11.8899 0.141134 12.2268 0.390983C12.5638 0.640832 12.8131 0.990868 12.939 1.391L12.987 1.553L13.225 2.768C13.2586 2.95022 13.3486 3.11728 13.4823 3.24558C13.616 3.37388 13.7866 3.45693 13.97 3.483L14.083 3.49H17.269C17.4569 3.49374 17.6366 3.56778 17.7725 3.69749C17.9085 3.82721 17.9908 4.00317 18.0034 4.19066C18.016 4.37815 17.9578 4.56353 17.8403 4.71022C17.7229 4.8569 17.5547 4.95424 17.369 4.983L17.269 4.99H14.082ZM11.914 3.49C11.8805 3.40436 11.8517 3.31688 11.828 3.228L11.79 3.062L11.563 1.893C11.5385 1.79592 11.4865 1.70798 11.4132 1.6397C11.34 1.57142 11.2486 1.5257 11.15 1.508L11.064 1.5H6.93604C6.84075 1.49987 6.74722 1.52567 6.66548 1.57464C6.58374 1.62362 6.51687 1.69392 6.47204 1.778L6.44604 1.845L6.21004 3.063C6.18174 3.2088 6.14024 3.35172 6.08604 3.49H11.914Z" fill="#606C80"/>
</g>
<defs>
<clipPath id="clip0_106_2277">
<rect width="18" height="20" fill="white"/>
</clipPath>
</defs>
</svg>
