<svg width="20" height="16" viewBox="0 0 20 16" fill="none" xmlns="http://www.w3.org/2000/svg">
<g clip-path="url(#clip0_106_2242)">
<path d="M9.71186 15.995C5.80686 15.865 2.25286 13.107 0.199857 8.617L0.0608572 8.294C0.0207099 8.20101 0 8.10079 0 7.9995C0 7.89821 0.0207099 7.79799 0.0608572 7.705C0.965697 5.50271 2.40712 3.56179 4.25386 2.059C5.88443 0.748325 7.90794 0.0232287 9.99986 0L10.2859 0C14.1859 0.131 17.7449 2.89 19.7949 7.381L19.9339 7.694C19.9754 7.78856 19.9968 7.89072 19.9968 7.994C19.9968 8.09728 19.9754 8.19944 19.9339 8.294C19.0285 10.4965 17.5868 12.4378 15.7399 13.941C14.1109 15.2504 12.0897 15.9754 9.99986 16L9.71186 15.995ZM5.33086 3.118C3.78605 4.32594 2.55186 5.88513 1.73086 7.666L1.56986 8L1.73886 8.361C2.52634 10.0482 3.68079 11.5381 5.11786 12.722C6.36077 13.7372 7.88094 14.3541 9.47986 14.492L9.74586 14.506H10.0029H10.2579C11.9548 14.4189 13.579 13.7898 14.8919 12.711C16.4177 11.4461 17.6254 9.84069 18.4179 8.024L18.4289 8C17.6514 6.21938 16.4788 4.63912 14.9999 3.379C13.7326 2.30626 12.1639 1.65291 10.5099 1.509L10.2439 1.495L10.0049 1.49C8.31178 1.51281 6.67175 2.08405 5.33086 3.118ZM6.08886 8C6.08391 7.22543 6.30907 6.46684 6.73579 5.8204C7.16252 5.17395 7.77159 4.66878 8.48578 4.36893C9.19997 4.06908 9.98711 3.98805 10.7474 4.13613C11.5077 4.2842 12.2069 4.6547 12.7564 5.20065C13.3059 5.74661 13.6808 6.44343 13.8338 7.20276C13.9867 7.96209 13.9107 8.74974 13.6155 9.46584C13.3202 10.1819 12.819 10.7942 12.1753 11.2251C11.5316 11.656 10.7744 11.886 9.99986 11.886C8.96603 11.8889 7.97334 11.4812 7.23997 10.7526C6.5066 10.0239 6.09256 9.03382 6.08886 8ZM7.58886 8C7.58648 8.4776 7.72595 8.94514 7.98958 9.34339C8.25321 9.74164 8.62913 10.0527 9.06971 10.237C9.51029 10.4214 9.99569 10.4708 10.4644 10.379C10.9331 10.2872 11.364 10.0584 11.7025 9.72144C12.041 9.38449 12.2718 8.95465 12.3657 8.48638C12.4597 8.0181 12.4124 7.53249 12.2301 7.09107C12.0477 6.64965 11.7384 6.27231 11.3414 6.00686C10.9444 5.74141 10.4775 5.59981 9.99986 5.6C9.36192 5.59867 8.74957 5.85075 8.29745 6.30081C7.84532 6.75087 7.59045 7.36206 7.58886 8Z" fill="#606C80"/>
</g>
<defs>
<clipPath id="clip0_106_2242">
<rect width="19.999" height="16" fill="white"/>
</clipPath>
</defs>
</svg>
