<svg width="14" height="18" viewBox="0 0 14 18" fill="none" xmlns="http://www.w3.org/2000/svg">
<path d="M0.5 14.1719C0.5 13.7142 0.648322 13.3622 0.911943 13.0734C1.1858 12.7733 1.60577 12.5191 2.17641 12.3171C3.32469 11.9106 4.94091 11.7639 6.75 11.7639C8.56771 11.7639 10.1834 11.9155 11.3287 12.3264C11.8978 12.5306 12.3163 12.7869 12.5892 13.0886C12.8522 13.3794 13 13.7333 13 14.192C13 14.6496 12.8517 15.0016 12.588 15.2905C12.314 15.5905 11.894 15.8448 11.3233 16.0468C10.1749 16.4533 8.55863 16.6 6.75 16.6C4.93235 16.6 3.31666 16.4482 2.17134 16.0372C1.60224 15.8329 1.18372 15.5766 0.910799 15.2748C0.647801 14.9841 0.5 14.6303 0.5 14.1719Z" stroke="#606C80"/>
<path d="M10.7164 4.52485C10.7164 6.76584 8.94701 8.54879 6.75006 8.54879C4.55311 8.54879 2.78369 6.76584 2.78369 4.52485C2.78369 2.28374 4.55324 0.5 6.75006 0.5C8.94688 0.5 10.7164 2.28374 10.7164 4.52485Z" stroke="#606C80"/>
</svg>
