<svg width="16" height="16" viewBox="0 0 16 16" fill="none" xmlns="http://www.w3.org/2000/svg">
<path d="M4.25081 0.5L11.7483 0.5C12.9351 0.5 13.8601 0.915455 14.4909 1.59295C15.1255 2.27446 15.5 3.26218 15.5 4.46789L15.5 11.5321C15.5 12.7378 15.1255 13.7255 14.4909 14.4071C13.8601 15.0845 12.9351 15.5 11.7483 15.5L4.25081 15.5C3.06408 15.5 2.1393 15.0846 1.50868 14.4071C0.874298 13.7256 0.5 12.7379 0.5 11.5321L0.5 4.46789C0.5 3.26281 0.876046 2.27499 1.51167 1.59316C2.14368 0.915216 3.06876 0.5 4.25081 0.5Z" stroke="#606C80" stroke-linecap="round" stroke-linejoin="round"/>
<path d="M8 6L8 12" stroke="#606C80" stroke-linecap="round" stroke-linejoin="round"/>
<mask id="path-3-inside-1_155_1117" fill="white">
<path fill-rule="evenodd" clip-rule="evenodd" d="M4.75843 7.72131L7.99994 4.46596L11.2415 7.72131"/>
</mask>
<path d="M4.04982 7.01571C3.66013 7.40707 3.66147 8.04023 4.05283 8.42992C4.44418 8.81962 5.07735 8.81827 5.46704 8.42691L4.04982 7.01571ZM7.99994 4.46596L8.70855 3.76036C8.5209 3.5719 8.2659 3.46596 7.99994 3.46596C7.73399 3.46596 7.47899 3.5719 7.29133 3.76036L7.99994 4.46596ZM10.5328 8.42691C10.9225 8.81827 11.5557 8.81962 11.9471 8.42992C12.3384 8.04023 12.3398 7.40707 11.9501 7.01571L10.5328 8.42691ZM5.46704 8.42691L8.70855 5.17156L7.29133 3.76036L4.04982 7.01571L5.46704 8.42691ZM7.29133 5.17156L10.5328 8.42691L11.9501 7.01571L8.70855 3.76036L7.29133 5.17156Z" fill="#606C80" mask="url(#path-3-inside-1_155_1117)"/>
</svg>
