<svg width="16" height="18" viewBox="0 0 16 18" fill="none" xmlns="http://www.w3.org/2000/svg">
<path d="M1.51502 1.58821C2.14876 0.917653 3.08316 0.511802 4.29241 0.50391L7.98634 0.501955L10.5213 0.500611L11.3564 0.500168L11.5903 0.500044L11.652 0.500011L11.6678 0.500003L11.6718 0.500001L11.6728 0.5L11.6728 0.5C11.6729 0.5 11.6729 0.5 11.673 0.5C11.673 0.5 11.673 0.5 11.673 0.5C12.8943 0.50004 13.8373 0.90426 14.4765 1.5761C15.1185 2.25089 15.5 3.24432 15.5 4.5044V13.4956C15.5 14.749 15.1215 15.7383 14.4845 16.4123C13.8505 17.0831 12.9158 17.4892 11.7066 17.4971C11.7062 17.4971 11.7057 17.4971 11.7052 17.4971L8.0124 17.4985L5.4777 17.4995L4.64268 17.4999L4.40876 17.5L4.34714 17.5L4.33134 17.5L4.32734 17.5H4.32633H4.32619C4.32615 17.5 4.32612 17.5 4.32608 17.5C3.10478 17.5 2.16201 17.0958 1.52305 16.424C0.881274 15.7492 0.5 14.7558 0.5 13.4956V4.5044C0.5 3.2509 0.878303 2.26192 1.51502 1.58821Z" fill="#F39200" stroke="#F39200" stroke-linecap="round" stroke-linejoin="round"/>
<path d="M11.4878 13.1729H4.55591" stroke="white" stroke-linecap="round" stroke-linejoin="round"/>
<path d="M11.4878 9.0791H4.55591" stroke="white" stroke-linecap="round" stroke-linejoin="round"/>
<path d="M7.20146 4.99609H4.5564" stroke="white" stroke-linecap="round" stroke-linejoin="round"/>
</svg>
