<svg width="18" height="18" viewBox="0 0 18 18" fill="none" xmlns="http://www.w3.org/2000/svg">
<path d="M12.668 0.5H15.7153C16.6973 0.5 17.5 1.30344 17.5 2.30397V5.37707C17.5 6.3776 16.6973 7.18104 15.7153 7.18104H12.668C11.686 7.18104 10.8833 6.3776 10.8833 5.37707V2.30397C10.8833 1.30344 11.686 0.5 12.668 0.5Z" stroke="#606C80"/>
<path d="M5.33204 10.819C6.31398 10.819 7.11671 11.6224 7.11671 12.6229V15.696C7.11671 16.6958 6.31386 17.5 5.33204 17.5H2.28467C1.30285 17.5 0.5 16.6958 0.5 15.696V12.6229C0.5 11.6224 1.30273 10.819 2.28467 10.819H5.33204ZM15.7153 10.819C16.6973 10.819 17.5 11.6224 17.5 12.6229V15.696C17.5 16.6958 16.6971 17.5 15.7153 17.5H12.668C11.6861 17.5 10.8833 16.6958 10.8833 15.696V12.6229C10.8833 11.6224 11.686 10.819 12.668 10.819H15.7153ZM5.33204 0.5C6.31398 0.5 7.11671 1.30344 7.11671 2.30397V5.37707C7.11671 6.3776 6.31398 7.18104 5.33204 7.18104H2.28467C1.30273 7.18104 0.5 6.3776 0.5 5.37707V2.30397C0.5 1.30344 1.30273 0.5 2.28467 0.5H5.33204Z" stroke="#606C80"/>
</svg>
