<svg width="17" height="19" viewBox="0 0 17 19" fill="none" xmlns="http://www.w3.org/2000/svg">
<path fill-rule="evenodd" clip-rule="evenodd" d="M6.86824 16.587C7.2999 17.0678 7.85407 17.3319 8.42907 17.3319H8.4299C9.0074 17.3319 9.56407 17.0678 9.99657 16.5861C10.1075 16.4629 10.2629 16.3888 10.4285 16.3801C10.594 16.3715 10.7563 16.4289 10.8795 16.5399C11.0027 16.6508 11.0768 16.8062 11.0855 16.9717C11.0941 17.1373 11.0367 17.2996 10.9257 17.4228C10.2524 18.1703 9.3674 18.5819 8.4299 18.5819H8.42824C7.4949 18.5811 6.6099 18.1694 5.93907 17.4219C5.88424 17.3609 5.84197 17.2897 5.81466 17.2124C5.78736 17.135 5.77555 17.0531 5.77993 16.9712C5.7843 16.8892 5.80476 16.809 5.84015 16.735C5.87553 16.661 5.92514 16.5947 5.98615 16.5399C6.04716 16.485 6.11838 16.4428 6.19572 16.4155C6.27307 16.3882 6.35504 16.3764 6.43695 16.3807C6.51886 16.3851 6.5991 16.4056 6.6731 16.4409C6.7471 16.4763 6.81341 16.5259 6.86824 16.587ZM8.47074 0.665283C12.1749 0.665283 14.6632 3.55028 14.6632 6.24445C14.6632 7.63028 15.0157 8.21778 15.3899 8.84112C15.7599 9.45612 16.1791 10.1544 16.1791 11.4744C15.8882 14.8469 12.3674 15.1219 8.47074 15.1219C4.57407 15.1219 1.0524 14.8469 0.764904 11.5278C0.762404 10.1544 1.18157 9.45612 1.55157 8.84112L1.6824 8.62112C2.00407 8.06862 2.27824 7.46695 2.27824 6.24445C2.27824 3.55028 4.76657 0.665283 8.47074 0.665283ZM8.47074 1.91528C5.55824 1.91528 3.52907 4.19695 3.52907 6.24445C3.52907 7.97695 3.0474 8.77778 2.6224 9.48445C2.28157 10.0519 2.0124 10.5003 2.0124 11.4744C2.15157 13.0461 3.18907 13.8719 8.47074 13.8719C13.7232 13.8719 14.7932 13.0094 14.9316 11.4203C14.9291 10.5003 14.6599 10.0519 14.3191 9.48445C13.8941 8.77778 13.4132 7.97695 13.4132 6.24445C13.4132 4.19695 11.3832 1.91528 8.47157 1.91528H8.47074Z" fill="#2B2B2B"/>
</svg>
