<svg width="18" height="18" viewBox="0 0 18 18" fill="none" xmlns="http://www.w3.org/2000/svg">
<path d="M12.668 0H15.7153C16.9774 0 18 1.03127 18 2.30397V5.37707C18 6.64977 16.9774 7.68104 15.7153 7.68104H12.668C11.4059 7.68104 10.3833 6.64977 10.3833 5.37707V2.30397C10.3833 1.03127 11.4059 0 12.668 0Z" fill="#F39200"/>
<path d="M5.33204 10.319C6.59408 10.319 7.61671 11.3502 7.61671 12.6229V15.696C7.61671 16.9679 6.59408 18 5.33204 18H2.28467C1.02263 18 0 16.9679 0 15.696V12.6229C0 11.3502 1.02263 10.319 2.28467 10.319H5.33204ZM15.7153 10.319C16.9774 10.319 18 11.3502 18 12.6229V15.696C18 16.9679 16.9774 18 15.7153 18H12.668C11.4059 18 10.3833 16.9679 10.3833 15.696V12.6229C10.3833 11.3502 11.4059 10.319 12.668 10.319H15.7153ZM5.33204 0C6.59408 0 7.61671 1.03127 7.61671 2.30397V5.37707C7.61671 6.64977 6.59408 7.68104 5.33204 7.68104H2.28467C1.02263 7.68104 0 6.64977 0 5.37707V2.30397C0 1.03127 1.02263 0 2.28467 0H5.33204Z" fill="#F39200"/>
</svg>
