<svg width="17" height="17" viewBox="0 0 17 17" fill="none" xmlns="http://www.w3.org/2000/svg">
<path fill-rule="evenodd" clip-rule="evenodd" d="M14 1.66016H4.82353C2.46342 1.66016 1 3.33161 1 5.69173V12.026C1 14.3861 2.43472 16.0504 4.82353 16.0504H11.5667C13.9268 16.0504 15.3903 14.3861 15.3903 12.026V3.5" fill="#F39200"/>
<path d="M14 1.66016H4.82353C2.46342 1.66016 1 3.33161 1 5.69173V12.026C1 14.3861 2.43472 16.0504 4.82353 16.0504H11.5667C13.9268 16.0504 15.3903 14.3861 15.3903 12.026V3.5" stroke="#F39200" stroke-linecap="round" stroke-linejoin="round"/>
<path d="M4.50073 10.7983L6.8465 7.74951L9.52226 9.85137L11.8178 6.88867" stroke="white" stroke-linecap="round" stroke-linejoin="round"/>
<path d="M14.4935 4.01292C15.3255 4.01292 16 3.33845 16 2.50646C16 1.67446 15.3255 1 14.4935 1C13.6615 1 12.9871 1.67446 12.9871 2.50646C12.9871 3.33845 13.6615 4.01292 14.4935 4.01292Z" fill="#F39200" stroke="#FEF2E0" stroke-linecap="round" stroke-linejoin="round"/>
</svg>
