<svg width="17" height="17" viewBox="0 0 17 17" fill="none" xmlns="http://www.w3.org/2000/svg">
<path d="M4.50073 10.7983L6.8465 7.74951L9.52226 9.85137L11.8178 6.88867" stroke="#606C80" stroke-linecap="round" stroke-linejoin="round"/>
<path d="M14.4935 4.01292C15.3255 4.01292 16 3.33845 16 2.50646C16 1.67446 15.3255 1 14.4935 1C13.6615 1 12.9871 1.67446 12.9871 2.50646C12.9871 3.33845 13.6615 4.01292 14.4935 4.01292Z" stroke="#606C80" stroke-linecap="round" stroke-linejoin="round"/>
<path d="M10.5194 1.65918H4.82353C2.46342 1.65918 1 3.33063 1 5.69075V12.025C1 14.3852 2.43472 16.0494 4.82353 16.0494H11.5667C13.9268 16.0494 15.3903 14.3852 15.3903 12.025V6.50854" stroke="#606C80" stroke-linecap="round" stroke-linejoin="round"/>
</svg>
