<svg width="18" height="18" viewBox="0 0 18 18" fill="none" xmlns="http://www.w3.org/2000/svg">
<path opacity="0.7" d="M17.1909 6.37908H16.1081V5.32046C16.1081 4.8685 15.7457 4.5 15.2991 4.5C14.8534 4.5 14.49 4.8685 14.49 5.32046V6.37908H13.4091C12.9624 6.37908 12.6 6.74758 12.6 7.19953C12.6 7.65148 12.9624 8.01999 13.4091 8.01999H14.49V9.07955C14.49 9.5315 14.8534 9.9 15.2991 9.9C15.7457 9.9 16.1081 9.5315 16.1081 9.07955V8.01999H17.1909C17.6366 8.01999 18 7.65148 18 7.19953C18 6.74758 17.6366 6.37908 17.1909 6.37908Z" fill="#F39200"/>
<path d="M6.75 11.2639C3.1088 11.2639 0 11.8461 0 14.1719C0 16.4968 3.08988 17.1 6.75 17.1C10.3903 17.1 13.5 16.5178 13.5 14.192C13.5 11.8661 10.4101 11.2639 6.75 11.2639Z" fill="#F39200"/>
<path opacity="0.7" d="M6.75 9.04879C9.22911 9.04879 11.2164 7.03592 11.2164 4.52485C11.2164 2.01378 9.22911 0 6.75 0C4.27089 0 2.28363 2.01378 2.28363 4.52485C2.28363 7.03592 4.27089 9.04879 6.75 9.04879Z" fill="#F39200"/>
</svg>
