<svg width="18" height="18" viewBox="0 0 18 18" fill="none" xmlns="http://www.w3.org/2000/svg">
<path d="M10.8327 0.936C10.9982 1.206 11.1086 1.539 11.081 1.89C11.0626 2.16 11.1454 2.43 11.2926 2.682C11.7616 3.447 12.801 3.735 13.6104 3.303C14.5209 2.781 15.6706 3.096 16.1949 3.987M10.8327 0.936C10.4924 0.378 9.87613 0 9.1955 0H7.89864M10.8327 0.936L10.8327 0.936005L10.8327 0.936ZM16.1949 3.987L15.7624 4.23794L15.7632 4.23928C15.3765 3.58358 14.5297 3.35229 13.859 3.73678L13.8525 3.74054L13.8458 3.7441C12.8037 4.30032 11.4741 3.93452 10.8663 2.94336L10.8607 2.9342L10.8608 2.93414C10.6781 2.62135 10.5552 2.25203 10.5822 1.85601L10.5825 1.85081L10.5826 1.85081C10.6 1.62888 10.5307 1.40004 10.4064 1.19736L10.4058 1.19634C10.1497 0.776367 9.68948 0.5 9.1955 0.5H7.90583M16.1949 3.987L16.8111 5.049L16.1949 3.987ZM7.90583 0.5C7.9079 0.499936 7.90997 0.499876 7.91204 0.49982L7.89864 0M7.90583 0.5H7.89864V0M7.90583 0.5C7.40538 0.515533 6.94801 0.785643 6.69754 1.19634L6.69056 1.20778L6.69041 1.20768C6.56926 1.39487 6.50056 1.62339 6.51228 1.86065M7.89864 0C7.22721 0.018 6.61097 0.378 6.27066 0.936C6.09591 1.206 5.99473 1.539 6.01313 1.89M6.51228 1.86065C6.51218 1.85911 6.51208 1.85756 6.51197 1.85601L6.01313 1.89M6.51228 1.86065C6.51233 1.86171 6.51239 1.86277 6.51244 1.86383L6.01313 1.89M6.51228 1.86065C6.53799 2.25491 6.4153 2.62257 6.23335 2.93414L6.22793 2.94343L6.22783 2.94337C5.62108 3.9329 4.29106 4.30207 3.25545 3.74298L3.24613 3.73795L3.24619 3.73785C2.56669 3.35221 1.72634 3.58216 1.32988 4.24112M6.01313 1.89C6.03152 2.16 5.94875 2.43 5.80158 2.682C5.3325 3.447 4.29317 3.735 3.49298 3.303C2.57322 2.781 1.43272 3.096 0.899253 3.987M1.32988 4.24112L1.33172 4.23794L0.899253 3.987M1.32988 4.24112C1.32933 4.24203 1.32879 4.24294 1.32824 4.24384L0.899253 3.987M1.32988 4.24112L0.715479 5.29994L0.713949 5.30256C0.329346 5.9562 0.546119 6.78688 1.20906 7.16038L1.21683 7.16475L1.21679 7.16482C2.22987 7.75961 2.59732 9.08149 1.99133 10.1014L1.98678 10.1091L1.98196 10.1166C1.81378 10.3779 1.58994 10.6772 1.2137 10.8652M0.899253 3.987L0.283013 5.049C-0.241251 5.94 0.0530726 7.083 0.963637 7.596C1.74543 8.055 2.02136 9.072 1.56148 9.846C1.40512 10.089 1.23957 10.296 0.982032 10.422M1.2137 10.8652C1.21644 10.8637 1.21917 10.8622 1.22192 10.8607L0.982032 10.422M1.2137 10.8652C1.20974 10.8672 1.20577 10.8692 1.20177 10.8711L0.982032 10.422M1.2137 10.8652C0.978609 10.9959 0.780209 11.1981 0.685246 11.3723L0.679428 11.383L0.673097 11.3933C0.438327 11.7783 0.438889 12.2825 0.696281 12.7257L0.6957 12.7247L0.264618 12.978M0.982032 10.422C0.669313 10.593 0.393384 10.863 0.246223 11.133C-0.0940892 11.691 -0.075694 12.393 0.264618 12.978M0.264618 12.978L0.696809 12.7266M0.264618 12.978L0.899253 14.058M0.696809 12.7266L11.081 16.155C11.081 17.19 10.2348 18 9.17711 18H7.92623C6.85931 18 6.01313 17.19 6.01313 16.155C5.99473 15.264 5.23133 14.517 4.32077 14.517C4.01725 14.517 3.74132 14.571 3.51138 14.724M0.696809 12.7266L1.32973 13.8037L0.899253 14.058M0.696809 12.7266L1.32998 13.8041M0.899253 14.058C1.23957 14.634 1.8742 14.994 2.53643 14.994C2.84915 14.994 3.21705 14.904 3.51138 14.724M0.899253 14.058L1.33034 13.8047L1.32998 13.8041M3.51138 14.724L3.25051 14.2974C3.24831 14.2988 3.24611 14.3001 3.2439 14.3015M3.51138 14.724L3.23439 14.3077C3.23756 14.3056 3.24073 14.3035 3.2439 14.3015M3.2439 14.3015C3.03615 14.4264 2.76353 14.494 2.53643 14.494C2.05108 14.494 1.58035 14.2275 1.32998 13.8041M3.2439 14.3015C3.58371 14.0789 3.96588 14.017 4.32077 14.017C5.49943 14.017 6.48893 14.9776 6.51302 16.1447L6.51323 16.155H6.51313C6.51313 16.8959 7.11712 17.5 7.92623 17.5H9.17711C9.97542 17.5 10.581 16.8974 10.581 16.155V16.1473L10.5813 16.1395C10.6172 14.9776 11.6028 14.017 12.7826 14.017C13.1341 14.017 13.5121 14.0811 13.8564 14.2996M1.32998 13.8041L16.4005 12.7373C16.4018 12.7349 16.4031 12.7325 16.4044 12.73M13.8564 14.2996C13.8552 14.2989 13.854 14.2982 13.8528 14.2974L13.592 14.724L13.8614 14.3028C13.8597 14.3017 13.8581 14.3007 13.8564 14.2996ZM13.8564 14.2996C14.0654 14.4264 14.3308 14.494 14.5669 14.494C15.0419 14.494 15.5134 14.2285 15.7644 13.8037L15.7654 13.802L16.4044 12.73M16.4044 12.73C16.6598 12.26 16.6603 11.7753 16.4336 11.3988M16.4044 12.73L16.4336 11.3988M16.4336 11.3988C16.292 11.1818 16.1049 10.986 15.8835 10.8668C15.5041 10.6782 15.2789 10.3771 15.1142 10.105C14.4952 9.08351 14.8643 7.75958 15.8774 7.16482L15.8869 7.15922L15.887 7.15933C16.5578 6.78515 16.7721 5.9572 16.3821 5.30584L16.3786 5.29997L16.3787 5.29994L15.764 4.24056L16.4336 11.3988Z" stroke="#606C80"/>
<path d="M8.56085 11.0469C7.37801 11.0469 6.44873 10.131 6.44873 9.00891C6.44873 7.88451 7.38035 6.96191 8.56085 6.96191C9.73436 6.96191 10.6454 7.87765 10.6454 9.00891C10.6454 10.1379 9.73669 11.0469 8.56085 11.0469Z" stroke="#606C80"/>
</svg>
