<svg width="18" height="19" viewBox="0 0 18 19" fill="none" xmlns="http://www.w3.org/2000/svg">
<path d="M16.9206 11.5145C16.7556 11.2595 16.521 11.0045 16.217 10.843C15.9738 10.724 15.8174 10.5285 15.6784 10.299C15.2354 9.568 15.496 8.6075 16.2344 8.174C17.103 7.6895 17.381 6.61 16.8772 5.7685L16.2952 4.7655C15.8 3.924 14.7142 3.6265 13.8542 4.1195C13.0898 4.5275 12.1082 4.2555 11.6652 3.533C11.5262 3.295 11.448 3.04 11.4654 2.785C11.4915 2.4535 11.3872 2.139 11.2309 1.884C10.9095 1.357 10.3275 1 9.68464 1H8.45983C7.8257 1.017 7.2437 1.357 6.92229 1.884C6.75725 2.139 6.66169 2.4535 6.67907 2.785C6.69644 3.04 6.61826 3.295 6.47927 3.533C6.03626 4.2555 5.05466 4.5275 4.29893 4.1195C3.43026 3.6265 2.35312 3.924 1.84929 4.7655L1.26729 5.7685C0.772152 6.61 1.05012 7.6895 1.9101 8.174C2.64847 8.6075 2.90906 9.568 2.47473 10.299C2.32706 10.5285 2.1707 10.724 1.92747 10.843C1.63213 11.0045 1.37153 11.2595 1.23254 11.5145C0.911138 12.0415 0.928511 12.7045 1.24992 13.257L1.84929 14.277C2.1707 14.821 2.77008 15.161 3.39552 15.161C3.69086 15.161 4.03833 15.076 4.3163 14.906C4.53347 14.7615 4.79407 14.7105 5.08072 14.7105C5.9407 14.7105 6.66169 15.416 6.67907 16.2575C6.67907 17.235 7.47824 18 8.48589 18H9.66727C10.6662 18 11.4654 17.235 11.4654 16.2575C11.4915 15.416 12.2125 14.7105 13.0724 14.7105C13.3504 14.7105 13.611 14.7615 13.8369 14.906C14.1148 15.076 14.4536 15.161 14.7576 15.161C15.3744 15.161 15.9738 14.821 16.2952 14.277L16.9032 13.257C17.216 12.6875 17.242 12.0415 16.9206 11.5145Z" stroke="#606C80"/>
<path d="M9.08517 11.9055C7.72137 11.9055 6.61816 10.843 6.61816 9.50853C6.61816 8.17403 7.72137 7.10303 9.08517 7.10303C10.449 7.10303 11.5261 8.17403 11.5261 9.50853C11.5261 10.843 10.449 11.9055 9.08517 11.9055Z" stroke="#606C80"/>
</svg>
