<svg width="18" height="18" viewBox="0 0 18 18" fill="none" xmlns="http://www.w3.org/2000/svg">
<path d="M9.1955 0C9.87613 0 10.4924 0.378 10.8327 0.936C10.9982 1.206 11.1086 1.539 11.081 1.89C11.0626 2.16 11.1454 2.43 11.2926 2.682C11.7616 3.447 12.801 3.735 13.6104 3.303C14.5209 2.781 15.6706 3.096 16.1949 3.987L16.8111 5.049C17.3446 5.94 17.0503 7.083 16.1305 7.596C15.3487 8.055 15.0728 9.072 15.5419 9.846C15.689 10.089 15.8546 10.296 16.1121 10.422C16.434 10.593 16.6824 10.863 16.8571 11.133C17.1974 11.691 17.1698 12.375 16.8387 12.978L16.1949 14.058C15.8546 14.634 15.2199 14.994 14.5669 14.994C14.245 14.994 13.8863 14.904 13.592 14.724C13.3528 14.571 13.0769 14.517 12.7826 14.517C11.872 14.517 11.1086 15.264 11.081 16.155C11.081 17.19 10.2348 18 9.17711 18H7.92623C6.85931 18 6.01313 17.19 6.01313 16.155C5.99473 15.264 5.23133 14.517 4.32077 14.517C4.01725 14.517 3.74132 14.571 3.51138 14.724C3.21705 14.904 2.84915 14.994 2.53643 14.994C1.8742 14.994 1.23957 14.634 0.899253 14.058L0.264618 12.978C-0.075694 12.393 -0.0940892 11.691 0.246223 11.133C0.393384 10.863 0.669313 10.593 0.982032 10.422C1.23957 10.296 1.40512 10.089 1.56148 9.846C2.02136 9.072 1.74543 8.055 0.963637 7.596C0.0530727 7.083 -0.241251 5.94 0.283013 5.049L0.899253 3.987C1.43272 3.096 2.57322 2.781 3.49298 3.303C4.29317 3.735 5.3325 3.447 5.80158 2.682C5.94874 2.43 6.03152 2.16 6.01313 1.89C5.99473 1.539 6.09591 1.206 6.27066 0.936C6.61097 0.378 7.22721 0.018 7.89864 0H9.1955ZM8.56087 6.462C7.11684 6.462 5.94874 7.596 5.94874 9.009C5.94874 10.422 7.11684 11.547 8.56087 11.547C10.0049 11.547 11.1454 10.422 11.1454 9.009C11.1454 7.596 10.0049 6.462 8.56087 6.462Z" fill="#F39200"/>
</svg>
