<svg width="16" height="16" viewBox="0 0 16 16" fill="none" xmlns="http://www.w3.org/2000/svg">
<path d="M11.472 0C14.1832 0 16 1.904 16 4.736V11.272C16 14.096 14.1832 16 11.472 16H4.536C1.824 16 0 14.096 0 11.272V4.736C0 1.904 1.824 0 4.536 0H11.472ZM8.424 4.304C8.2 4.08 7.8 4.08 7.576 4.304L4.576 7.32C4.344 7.552 4.344 7.936 4.576 8.168C4.816 8.4 5.192 8.4 5.432 8.168L7.4 6.184V11.264C7.4 11.6 7.672 11.864 8 11.864C8.336 11.864 8.6 11.6 8.6 11.264V6.184L10.576 8.168C10.688 8.28 10.848 8.344 11 8.344C11.1512 8.344 11.304 8.28 11.424 8.168C11.656 7.936 11.656 7.552 11.424 7.32L8.424 4.304Z" fill="#F39200"/>
</svg>
