<svg width="17" height="20" viewBox="0 0 17 20" fill="none" xmlns="http://www.w3.org/2000/svg">
<path fill-rule="evenodd" clip-rule="evenodd" d="M14.9224 3.26197C15.3387 3.40772 15.6168 3.80019 15.6168 4.24125V10.6933C15.6168 12.4965 14.9614 14.2179 13.804 15.5516C13.222 16.2231 12.4856 16.7461 11.7035 17.1691L8.31412 19L4.91903 17.1681C4.13598 16.7452 3.39867 16.2231 2.81567 15.5506C1.6573 14.217 1 12.4946 1 10.6895V4.24125C1 3.80019 1.27816 3.40772 1.69445 3.26197L7.96452 1.05859C8.18743 0.980472 8.43034 0.980472 8.6523 1.05859L14.9224 3.26197Z" fill="#F39200" stroke="#F39200" stroke-linecap="round" stroke-linejoin="round"/>
<path d="M5.83203 9.73322L7.63436 11.5365L11.3476 7.82324" stroke="white" stroke-linecap="round" stroke-linejoin="round"/>
</svg>
