<svg width="18" height="22" viewBox="0 0 18 22" fill="none" xmlns="http://www.w3.org/2000/svg">
<path d="M10.3261 0C10.5987 0 10.8084 0.222353 10.8084 0.487059V3.89647C10.8084 5.83412 12.3914 7.42235 14.3098 7.43294C15.1066 7.43294 15.7356 7.44353 16.2178 7.44353L16.3964 7.44274C16.7187 7.44029 17.1526 7.43294 17.5282 7.43294C17.7903 7.43294 18 7.64471 18 7.90941V16.4224C18 19.0482 15.8928 21.1765 13.293 21.1765H4.94817C2.22248 21.1765 0 18.9424 0 16.1894V4.77529C0 2.14941 2.11765 0 4.72801 0H10.3261ZM11.4479 13.6588H5.7449C5.31508 13.6588 4.95865 14.0082 4.95865 14.4424C4.95865 14.8765 5.31508 15.2365 5.7449 15.2365H11.4479C11.8777 15.2365 12.2341 14.8765 12.2341 14.4424C12.2341 14.0082 11.8777 13.6588 11.4479 13.6588ZM9.28829 8.36471H5.7449C5.31508 8.36471 4.95865 8.7247 4.95865 9.15882C4.95865 9.59294 5.31508 9.94235 5.7449 9.94235H9.28829C9.71811 9.94235 10.0745 9.59294 10.0745 9.15882C10.0745 8.7247 9.71811 8.36471 9.28829 8.36471ZM12.336 0.959294C12.336 0.502941 12.8843 0.276353 13.1978 0.605647C14.331 1.79576 16.3113 3.87635 17.4184 5.03894C17.7245 5.35976 17.5002 5.89235 17.0588 5.89341C16.1971 5.89659 15.1812 5.89341 14.4505 5.886C13.2911 5.886 12.336 4.92141 12.336 3.75035V0.959294Z" fill="#606C80"/>
</svg>
