<svg width="20" height="20" viewBox="0 0 20 20" fill="none" xmlns="http://www.w3.org/2000/svg">
<g clip-path="url(#clip0_1921_642)">
<path d="M9.71186 17.995C5.80686 17.865 2.25286 15.107 0.199857 10.617L0.0608572 10.294C0.0207099 10.201 0 10.1008 0 9.9995C0 9.89821 0.0207099 9.79799 0.0608572 9.705C0.965697 7.50271 2.40712 5.56179 4.25386 4.059C5.88443 2.74832 7.90794 2.02323 9.99986 2L10.2859 2C14.1859 2.131 17.7449 4.89 19.7949 9.381L19.9339 9.694C19.9754 9.78856 19.9968 9.89072 19.9968 9.994C19.9968 10.0973 19.9754 10.1994 19.9339 10.294C19.0285 12.4965 17.5868 14.4378 15.7399 15.941C14.1109 17.2504 12.0897 17.9754 9.99986 18L9.71186 17.995ZM5.33086 5.118C3.78605 6.32594 2.55186 7.88513 1.73086 9.666L1.56986 10L1.73886 10.361C2.52634 12.0482 3.68079 13.5381 5.11786 14.722C6.36077 15.7372 7.88094 16.3541 9.47986 16.492L9.74586 16.506H10.0029H10.2579C11.9548 16.4189 13.579 15.7898 14.8919 14.711C16.4177 13.4461 17.6254 11.8407 18.4179 10.024L18.4289 10C17.6514 8.21938 16.4788 6.63912 14.9999 5.379C13.7326 4.30626 12.1639 3.65291 10.5099 3.509L10.2439 3.495L10.0049 3.49C8.31178 3.51281 6.67175 4.08405 5.33086 5.118ZM6.08886 10C6.08391 9.22543 6.30907 8.46684 6.73579 7.8204C7.16252 7.17395 7.77159 6.66878 8.48578 6.36893C9.19997 6.06908 9.98712 5.98805 10.7474 6.13613C11.5077 6.2842 12.2069 6.6547 12.7564 7.20065C13.3059 7.74661 13.6808 8.44343 13.8338 9.20276C13.9867 9.96209 13.9107 10.7497 13.6155 11.4658C13.3202 12.1819 12.819 12.7942 12.1753 13.2251C11.5316 13.656 10.7744 13.886 9.99986 13.886C8.96603 13.8889 7.97334 13.4812 7.23997 12.7526C6.5066 12.0239 6.09256 11.0338 6.08886 10ZM7.58886 10C7.58648 10.4776 7.72595 10.9451 7.98958 11.3434C8.25321 11.7416 8.62913 12.0527 9.06971 12.237C9.51029 12.4214 9.99569 12.4708 10.4644 12.379C10.9331 12.2872 11.364 12.0584 11.7025 11.7214C12.041 11.3845 12.2718 10.9546 12.3657 10.4864C12.4597 10.0181 12.4124 9.53248 12.2301 9.09107C12.0477 8.64965 11.7384 8.2723 11.3414 8.00686C10.9444 7.74141 10.4775 7.59981 9.99986 7.6C9.36192 7.59867 8.74957 7.85075 8.29745 8.30081C7.84532 8.75087 7.59045 9.36206 7.58886 10Z" fill="#606C80"/>
</g>
<path d="M2 1.5L19 18.5" stroke="#606C80" stroke-width="1.5" stroke-linecap="round"/>
<defs>
<clipPath id="clip0_1921_642">
<rect width="19.999" height="16" fill="white" transform="translate(0 2)"/>
</clipPath>
</defs>
</svg>
